HIERARCHY
ROOT Hips
{
	OFFSET 0.000000 0.000000 0.000000
	CHANNELS 6 Xposition Yposition Zposition Zrotation Yrotation Xrotation 
	JOINT LHipJoint
	{
		OFFSET 0.000000 0.000000 0.000000
		CHANNELS 3 Zrotation Yrotation Xrotation
		JOINT LeftUpLeg
		{
			OFFSET 1.363060 -1.794630 0.839290
			CHANNELS 3 Zrotation Yrotation Xrotation
			JOINT LeftLeg
			{
				OFFSET 2.448110 -6.726130 0.000000
				CHANNELS 3 Zrotation Yrotation Xrotation
				JOINT LeftFoot
				{
					OFFSET 2.562200 -7.039590 0.000000
					CHANNELS 3 Zrotation Yrotation Xrotation
					JOINT LeftToeBase
					{
						OFFSET 0.157640 -0.433110 2.322550
						CHANNELS 3 Zrotation Yrotation Xrotation
						End Site
						{
							OFFSET 0.000000 0.000000 0.000000
						}
					}
				}
			}
		}
	}
	JOINT RHipJoint
	{
		OFFSET 0.000000 0.000000 0.000000
		CHANNELS 3 Zrotation Yrotation Xrotation
		JOINT RightUpLeg
		{
			OFFSET -1.305520 -1.794630 0.839290
			CHANNELS 3 Zrotation Yrotation Xrotation
			JOINT RightLeg
			{
				OFFSET -2.542530 -6.985550 0.000000
				CHANNELS 3 Zrotation Yrotation Xrotation
				JOINT RightFoot
				{
					OFFSET -2.568260 -7.056230 0.000000
					CHANNELS 3 Zrotation Yrotation Xrotation
					JOINT RightToeBase
					{
						OFFSET -0.164730 -0.452590 2.363150
						CHANNELS 3 Zrotation Yrotation Xrotation
						End Site
						{
							OFFSET 0.000000 0.000000 0.000000
						}
					}
				}
			}
		}
	}
}
MOTION
Frames: 22
Frame Time: 0.008333
3.086624 17.837490 0.688836 139.212718 86.641000 161.696846 -9.154799 1.542609 2.555079 -16.982406 2.402773 -36.514080 -3.735038 -0.857630 5.641540 0.194001 2.560894 6.424341 1.193000 0.000000 -46.914300 11.037423 -3.137959 0.075138 6.379059 -1.299142 -8.560064 -1.073992 -2.514612 44.677487 -2.157916 -11.475126 14.897610 -4.197000 -0.000000 -62.218600
3.367466 17.778078 0.686108 140.780266 87.223241 162.964044 -9.192026 1.427325 2.460398 -17.086838 2.969851 -36.930667 -3.896477 -0.940658 4.305614 -0.092548 0.723552 7.327448 0.753900 0.000000 -47.449001 11.063472 -3.161614 -0.091360 6.364781 -1.347456 -8.553849 -1.184069 -2.696219 47.879140 -2.264530 -12.159538 13.717931 -4.218500 0.000000 -62.189999
3.648669 17.705602 0.686602 140.978534 87.723459 162.864910 -9.190021 1.329050 2.418078 -17.097814 3.089914 -37.333550 -3.985109 -0.973034 3.640311 -0.286635 -0.604906 7.921034 0.407600 -0.000000 -47.416400 11.136723 -3.181405 -0.271653 6.158070 -1.480644 -8.578314 -1.302158 -2.887125 51.053873 -2.353062 -12.703748 12.644719 -4.179200 0.000000 -62.016100
3.929973 17.620818 0.691300 138.880275 88.093341 160.501898 -9.137909 1.243354 2.457464 -16.957116 2.616386 -37.692425 -3.990342 -0.967092 3.618591 -0.372676 -1.203603 8.119015 0.247600 0.000000 -46.828100 11.265065 -3.202777 -0.468086 5.736725 -1.709472 -8.672251 -1.424820 -3.093563 54.191522 -2.425514 -13.124304 11.665093 -4.093000 -0.000000 -61.663200
4.210797 17.524424 0.700471 133.905964 88.288975 155.309350 -9.038461 1.165739 2.574706 -16.693139 1.577646 -38.075585 -3.919531 -0.918972 4.338188 -0.356001 -1.078999 7.806675 0.288500 -0.000000 -45.676300 11.441318 -3.236025 -0.674257 5.102653 -2.031906 -8.865170 -1.549937 -3.321127 57.291203 -2.484906 -13.449202 10.757481 -3.974500 0.000000 -61.153900
4.490493 17.417034 0.713871 126.192307 88.282436 147.428727 -8.908211 1.095035 2.751293 -16.388456 0.092630 -38.593972 -3.784043 -0.816167 5.927509 -0.244740 -0.365498 6.891057 0.479000 -0.000000 -43.990200 11.643760 -3.282697 -0.882496 4.258378 -2.437829 -9.177619 -1.680393 -3.569807 60.365000 -2.532902 -13.699609 9.888591 -3.831400 0.000000 -60.481100
4.768247 17.299259 0.730960 116.788641 88.079177 137.896723 -8.760915 1.038237 2.958041 -16.139884 -1.672336 -39.325797 -3.593729 -0.644921 8.462169 -0.044489 0.754507 5.342882 0.725600 -0.000001 -41.837700 11.854760 -3.324971 -1.088842 3.199167 -2.905859 -9.600413 -1.825517 -3.830794 63.425447 -2.570622 -13.890190 9.032608 -3.668400 -0.000000 -59.723300
5.043317 17.171766 0.749812 107.743929 87.756186 128.736555 -8.604394 1.003750 3.143209 -16.021225 -3.439105 -40.366993 -3.363823 -0.384986 12.049526 0.223131 1.992010 3.154853 0.898700 -0.000000 -39.191800 12.068176 -3.345338 -1.277437 1.996274 -3.383321 -10.109876 -1.994833 -4.088989 66.479680 -2.601293 -14.050757 8.173178 -3.495300 0.000000 -58.911500
5.314973 17.035711 0.768219 100.032764 87.399587 120.890264 -8.452560 0.976761 3.261739 -16.027161 -5.002769 -41.681421 -3.100374 -0.039285 16.614756 0.535637 3.177780 0.430979 0.920000 -0.000000 -36.056400 12.282535 -3.347463 -1.437874 0.739165 -3.824819 -10.671081 -2.189151 -4.341305 69.516850 -2.628220 -14.207839 7.304021 -3.320300 0.000000 -58.064700
5.582657 16.893245 0.783771 93.380596 87.082286 114.072343 -8.338303 0.924388 3.298115 -16.071519 -6.281771 -43.146402 -2.800636 0.362894 21.890043 0.877227 4.296561 -2.641645 0.775700 0.000000 -32.560900 12.481629 -3.347602 -1.564928 -0.478842 -4.181610 -11.276447 -2.404918 -4.591714 72.524926 -2.654137 -14.382547 6.431547 -3.150800 -0.000000 -57.068101
5.846198 16.747911 0.796444 87.018111 86.797133 107.500216 -8.277820 0.835256 3.255642 -16.132880 -7.266090 -44.541830 -2.481185 0.773880 27.420527 1.232555 5.398849 -5.825527 0.487600 -0.000000 -29.044300 12.660054 -3.348294 -1.667723 -1.662508 -4.450723 -11.907823 -2.638983 -4.843736 75.467553 -2.678460 -14.564450 5.576307 -2.987400 -0.000000 -56.076200
6.105754 16.603976 0.806454 80.494562 86.528235 100.738151 -8.279889 0.716005 3.150800 -16.202517 -7.952125 -45.732398 -2.167763 1.157913 32.819746 1.582819 6.491361 -8.951484 0.080500 0.000000 -25.896700 12.810659 -3.347229 -1.747284 -2.802873 -4.624571 -12.592081 -2.888560 -5.094507 78.316805 -2.700392 -14.741689 4.756996 -2.831001 0.000000 -55.005100
6.361793 16.466051 0.814790 73.690995 86.242227 93.687490 -8.337150 0.590259 3.001797 -16.301999 -8.341112 -46.638301 -1.888351 1.496026 37.790852 1.910664 7.543189 -11.916063 -0.418500 -0.000000 -23.457800 12.934189 -3.335347 -1.802702 -3.903331 -4.712031 -13.365930 -3.149799 -5.336820 81.038120 -2.718569 -14.896479 3.993160 -2.681800 -0.000000 -53.833400
6.614977 16.338501 0.822546 66.770605 85.913465 86.532242 -8.433944 0.483577 2.824528 -16.446685 -8.441623 -47.235075 -1.661964 1.783267 42.152186 2.203811 8.502993 -14.674109 -0.979300 0.000000 -21.926400 13.035450 -3.302756 -1.831018 -4.955375 -4.730163 -14.267645 -3.416599 -5.561552 83.594571 -2.731623 -15.012206 3.299218 -2.540500 0.000000 -52.541500
6.866117 16.225156 0.830585 60.015605 85.532475 79.570853 -8.552268 0.413901 2.631213 -16.634675 -8.272671 -47.528217 -1.497106 2.020299 45.810540 2.455416 9.319629 -17.211245 -1.569400 -0.000000 -21.352800 13.120686 -3.242307 -1.829508 -5.937948 -4.700902 -15.324983 -3.680275 -5.760562 85.947171 -2.738240 -15.075233 2.681719 -2.407199 0.000000 -51.126500
7.116008 16.129111 0.839506 53.684737 85.104560 73.069559 -8.676253 0.388428 2.430713 -16.849580 -7.864030 -47.534095 -1.394588 2.208245 48.732690 2.662571 9.954195 -19.521676 -2.153899 -0.000000 -21.658400 13.194911 -3.150943 -1.797711 -6.821276 -4.649077 -16.548684 -3.930210 -5.928490 88.056177 -2.737262 -15.075830 2.141762 -2.281700 0.000000 -49.626700
7.365435 16.052638 0.849640 47.945103 84.645902 67.196478 -8.794894 0.405468 2.229695 -17.067758 -7.254872 -47.268775 -1.350571 2.347177 50.923675 2.824870 10.385562 -21.596796 -2.698800 -0.000000 -22.659800 13.260032 -3.029511 -1.738353 -7.574242 -4.599934 -17.931571 -4.155146 -6.063255 89.885031 -2.727269 -15.005626 1.670977 -2.162099 -0.000000 -48.062100
7.615058 15.997180 0.861061 42.865546 84.178005 62.015989 -8.902615 0.457685 2.033497 -17.263714 -6.491841 -46.746620 -1.358336 2.436923 52.414371 2.943621 10.612220 -23.422222 -3.174400 -0.000000 -24.082300 13.314231 -2.881074 -1.656783 -8.167543 -4.574172 -19.449879 -4.344263 -6.164624 91.399470 -2.707853 -14.863098 1.272714 -2.049800 -0.000000 -46.617700
7.865342 15.963341 0.873794 38.455846 83.721354 57.531947 -8.996362 0.536442 1.848950 -17.417801 -5.630682 -45.982532 -1.408111 2.477707 53.254116 3.021851 10.656282 -24.968954 -3.557400 -0.000000 -25.673800 13.355577 -2.710319 -1.559588 -8.584258 -4.590414 -21.075452 -4.489153 -6.235043 92.579447 -2.676536 -14.636643 0.919214 -1.937900 0.000000 -45.208199
8.116616 15.951120 0.887614 34.678636 83.299421 53.702026 -9.078416 0.631769 1.681312 -17.508650 -4.729492 -44.992569 -1.488275 2.471613 53.506608 3.063251 10.553898 -26.209340 -3.835600 0.000000 -27.165500 13.378287 -2.521680 -1.455270 -8.807288 -4.656453 -22.770382 -4.583202 -6.276007 93.407243 -2.633314 -14.327129 0.620866 -1.829000 0.000000 -44.103100
8.368942 15.959845 0.902287 31.483380 82.931456 50.473757 -9.151184 0.735751 1.537660 -17.522678 -3.849822 -43.799271 -1.584994 2.422280 53.245119 3.072361 10.356680 -27.105898 -4.006100 0.000000 -28.432900 13.378831 -2.319808 -1.351287 -8.832707 -4.776003 -24.503746 -4.623351 -6.290310 93.881415 -2.576313 -13.924941 0.362157 -1.719001 -0.000000 -43.319900
8.622225 15.988380 0.917588 28.808143 82.635335 47.786590 -9.218379 0.841901 1.424354 -17.449080 -3.049296 -42.431720 -1.684048 2.335358 52.549906 3.053611 10.119053 -27.626147 -4.074900 0.000000 -29.450100 13.354132 -2.108964 -1.254429 -8.661762 -4.946548 -26.249228 -4.609300 -6.280624 94.009562 -2.503888 -13.421339 0.128987 -1.604300 -0.000000 -42.876899
